<svg width="473" height="73" viewBox="0 0 473 73" fill="none" xmlns="http://www.w3.org/2000/svg" title="FundOSS">
<path d="M40.6444 42.8314V29.3641V29.0097H19.7347V16.6056H48.0869V0.834717H0.0653076V71.7153H19.7347V43.8946H40.6444V42.8314Z" fill="#02E2AC"/>
<path d="M331.255 5.26426C325.939 2.25184 319.914 0.834229 313.357 0.834229C306.801 0.834229 300.953 2.25184 295.46 5.26426C289.967 8.27669 285.714 12.5295 282.524 17.8456C281.461 19.6176 280.752 21.3896 280.043 23.1616C298.295 20.6808 311.231 18.3772 312.648 18.3772C322.572 18.3772 330.546 26.3512 330.546 36.2745C330.546 46.1978 322.572 54.1718 312.648 54.1718C311.231 54.1718 298.295 51.8682 280.043 49.3874C280.752 51.1594 281.461 52.9314 282.524 54.7034C285.714 60.0195 289.967 64.2723 295.46 67.2847C300.953 70.2972 306.801 71.892 313.357 71.892C319.914 71.892 325.761 70.2972 331.255 67.2847C336.748 64.2723 341.001 60.0195 344.013 54.7034C347.203 49.3874 348.798 43.1854 348.798 36.4517C348.798 29.7181 347.203 23.516 344.013 18.2C340.823 12.5295 336.571 8.27669 331.255 5.26426Z" fill="#9451EB"/>
<path d="M63.3261 29.3636C60.4909 29.3636 58.1873 26.8828 58.1873 24.0476V0.834229H77.6794V29.5409C72.3634 29.5409 67.5789 29.5408 63.3261 29.3636ZM118.613 30.0725V0.834229H99.1208V29.8953C105.323 29.8953 111.879 29.8953 118.613 30.0725ZM99.1208 41.5905C99.1208 45.3118 98.2348 48.147 96.4628 50.2734C94.6907 52.3998 91.8555 53.463 88.3115 53.463C84.7675 53.463 82.1094 52.3998 80.3374 50.4506C78.5654 48.5014 77.6794 45.6662 77.6794 41.9449C72.7178 41.9449 68.1105 42.1221 63.8577 42.1221C60.6681 42.1221 58.1873 44.9574 58.7189 48.147C59.2505 51.8682 60.4909 55.2351 62.0857 58.2475C64.5665 62.6775 68.1105 66.2215 72.7178 68.5252C77.1478 70.8288 82.2866 71.892 87.9571 71.892C93.6275 71.892 98.9436 70.8288 103.551 68.5252C108.158 66.2215 111.879 62.8547 114.714 58.2475C117.373 53.6402 118.79 48.147 118.79 41.7677V41.5905C111.879 41.4133 105.323 41.5905 99.1208 41.5905Z" fill="#02E2AC"/>
<path d="M469.826 39.9957C467.699 37.3376 465.396 35.2112 462.561 33.7936C459.725 32.376 456.181 30.7812 451.751 29.3636C448.739 28.3004 446.613 27.4144 445.018 26.7056C443.6 25.9967 442.182 25.2879 441.296 24.2247C440.233 23.3387 439.702 22.0983 439.702 20.8579C439.702 19.2631 440.233 18.0227 441.119 17.3139C442.005 16.4279 443.246 16.0735 444.663 16.0735C446.612 16.0735 448.03 16.6051 449.271 17.6683C450.511 18.7315 451.043 20.3263 451.22 22.4527H472.13C471.775 15.7191 469.294 10.403 464.51 6.6818C459.725 2.96057 453.346 1.01135 445.195 1.01135C440.233 1.01135 435.803 1.89736 431.905 3.49217C428.006 5.08698 424.994 7.5678 422.69 10.7574C420.387 13.9471 419.323 17.6683 419.323 22.0983C419.323 26.5284 420.387 30.0724 422.336 32.7304C424.462 35.3884 426.766 37.5148 429.601 38.9324C432.436 40.3501 435.98 41.7677 440.588 43.3625C444.84 44.7801 447.853 46.0205 449.802 47.0837C451.751 48.1469 452.637 49.7417 452.637 51.8681C452.637 53.463 452.106 54.7034 450.865 55.5894C449.802 56.4754 448.207 56.8298 446.435 56.8298C444.486 56.8298 442.891 56.2982 441.651 55.235C440.41 54.1718 439.702 52.3998 439.524 49.9189H418.969C419.323 57.007 422.159 62.5002 427.298 66.3987C432.436 70.2971 438.993 72.0691 447.144 72.0691C452.46 72.0691 457.067 71.1831 460.966 69.2339C464.864 67.2847 467.877 64.8039 469.826 61.437C471.952 58.2474 472.838 54.5262 472.838 50.2733C473.015 46.0205 471.952 42.6537 469.826 39.9957Z" fill="#9451EB"/>
<path d="M400.186 33.7937C397.351 32.3761 393.807 30.7813 389.377 29.3636C386.364 28.3004 384.238 27.4144 382.643 26.7056C381.225 25.9968 379.808 25.288 378.922 24.2248C377.859 23.3388 377.327 22.0984 377.327 20.858C377.327 19.2632 377.859 18.0228 378.745 17.314C379.631 16.4279 380.871 16.0735 382.289 16.0735C384.238 16.0735 385.656 16.6052 386.896 17.6684C388.136 18.7316 388.668 20.3264 388.845 22.4528H409.755C409.4 15.7191 406.92 10.4031 402.135 6.68187C397.351 2.78344 390.794 0.834229 382.82 0.834229C377.859 0.834229 373.429 1.72024 369.53 3.31505C365.632 4.90986 362.619 7.39068 360.316 10.5803C358.012 13.7699 356.949 17.4912 356.949 21.9212C356.949 26.3512 358.012 29.8953 359.961 32.5533C362.088 35.2113 364.391 37.3377 367.227 38.7553C370.062 40.1729 373.606 41.5905 378.213 43.1854C382.466 44.603 385.478 45.8434 387.428 46.9066C389.377 47.9698 390.263 49.5646 390.263 51.691C390.263 53.2858 389.731 54.5262 388.491 55.4122C387.428 56.2983 385.833 56.6527 384.061 56.6527C382.111 56.6527 380.517 56.1211 379.276 55.0578C378.036 53.9946 377.327 52.2226 377.15 49.7418H356.594C356.949 56.8299 359.784 62.3231 364.923 66.2215C370.062 70.12 376.618 71.892 384.77 71.892C390.086 71.892 394.693 71.006 398.591 69.0568C402.49 67.1075 405.502 64.6267 407.451 61.2599C409.578 58.0703 410.464 54.349 410.464 50.0962C410.464 46.0206 409.4 42.6538 407.451 39.9957C405.502 37.3377 403.021 35.2113 400.186 33.7937Z" fill="#9451EB"/>
<path d="M129.422 30.4269V0.834229H149.092L168.407 30.2497C155.648 30.4269 142.358 30.4269 129.422 30.4269ZM194.987 29.8953V0.834229H175.317V30.2497C182.228 30.2497 188.785 30.0725 194.987 29.8953ZM155.471 41.7677L175.317 71.7148H194.987V42.2993C183.114 41.9449 169.47 41.7677 155.471 41.7677ZM129.422 41.7677V71.7148H149.092V41.7677C142.535 41.7677 135.979 41.7677 129.422 41.7677Z" fill="#02E2AC"/>
<path d="M311.054 46.9065C316.926 46.9065 321.686 42.1464 321.686 36.2744C321.686 30.4025 316.926 25.6423 311.054 25.6423C305.182 25.6423 300.422 30.4025 300.422 36.2744C300.422 42.1464 305.182 46.9065 311.054 46.9065Z" fill="#02E2AC"/>
<path d="M220.858 29.0092C216.428 29.3636 211.466 29.5408 205.796 29.7181V0.834229H233.971C241.413 0.834229 247.97 2.25184 253.463 5.26426C259.133 8.27669 263.386 12.3523 266.399 17.8456C267.462 19.7948 268.525 21.9212 269.234 24.2248C263.563 24.9336 257.539 25.6424 251.159 26.3512C250.096 24.402 248.679 22.63 246.907 21.2124C242.654 17.6684 236.983 15.8963 229.718 15.8963H222.098V28.832C221.744 28.832 221.39 28.832 220.858 29.0092ZM251.159 45.8434C250.096 47.7926 248.679 49.5646 246.907 50.9822C242.654 54.5262 236.983 56.2983 229.718 56.2983H222.098V43.3626C221.567 43.3626 221.212 43.3626 220.681 43.1854C216.251 42.831 211.289 42.6538 205.796 42.4766V71.7148H233.971C241.413 71.7148 247.793 70.12 253.463 67.1075C259.133 64.0951 263.386 59.8423 266.399 54.5262C267.639 52.3998 268.525 50.2734 269.234 47.9698C263.563 47.261 257.361 46.5522 251.159 45.8434Z" fill="#02E2AC"/>
</svg>
