<svg width="109" height="112" viewBox="0 0 109 112" fill="none" xmlns="http://www.w3.org/2000/svg" title="FundOSS">
<path d="M80.7173 7.39894C72.3707 2.76254 62.8648 0.444336 52.6633 0.444336C42.4619 0.444336 33.1878 2.76254 24.8412 7.39894C16.2627 12.0353 9.53899 18.7581 4.67011 27.1036C3.04715 29.8855 1.88789 32.6673 0.728638 35.681C29.4782 31.74 49.4174 28.0309 51.7359 28.0309C67.0381 28.0309 79.5581 40.5492 79.5581 55.8493C79.5581 71.1494 67.0381 83.6677 51.7359 83.6677C49.4174 83.6677 29.4782 80.1904 0.728638 76.0177C1.88789 78.7995 3.04715 81.5814 4.67011 84.3632C9.53899 92.7087 16.2627 99.4315 24.8412 104.068C33.4197 108.704 42.6937 111.254 52.6633 111.254C62.8648 111.254 72.1388 108.936 80.4855 104.068C89.064 99.4315 95.5558 92.7087 100.657 84.3632C105.525 76.0177 108.076 66.513 108.076 55.8493C108.076 45.1856 105.525 35.681 100.657 27.3355C95.7877 18.7581 89.064 12.2672 80.7173 7.39894Z" fill="#9451EB"/>
<path d="M49.2081 72.545C58.4289 72.545 65.9038 65.07 65.9038 55.8493C65.9038 46.6285 58.4289 39.1536 49.2081 39.1536C39.9873 39.1536 32.5124 46.6285 32.5124 55.8493C32.5124 65.07 39.9873 72.545 49.2081 72.545Z" fill="#02E2AC"/>
</svg>
